<svg xmlns="http://www.w3.org/2000/svg" width="150" height="40" viewBox="0 0 150 40" font-family="ui-monospace,SFMono-Regular,Menlo,Consolas,'Liberation Mono',monospace"><defs><linearGradient id="gl" x1="0" y1="0" x2="0" y2="1"><stop offset="0" stop-color="#fff" stop-opacity=".38"/><stop offset=".55" stop-color="#fff" stop-opacity=".06"/><stop offset="1" stop-color="#fff" stop-opacity="0"/></linearGradient><linearGradient id="g-pink" x1="0" y1="0" x2="0" y2="1"><stop offset="0" stop-color="#ec4899" stop-opacity=".12"/><stop offset="1" stop-color="#ec4899" stop-opacity="0"/></linearGradient><linearGradient id="g-lav" x1="0" y1="0" x2="0" y2="1"><stop offset="0" stop-color="#8b5cf6" stop-opacity=".12"/><stop offset="1" stop-color="#8b5cf6" stop-opacity="0"/></linearGradient><linearGradient id="g-mint" x1="0" y1="0" x2="0" y2="1"><stop offset="0" stop-color="#22d3ee" stop-opacity=".12"/><stop offset="1" stop-color="#22d3ee" stop-opacity="0"/></linearGradient><linearGradient id="g-peach" x1="0" y1="0" x2="0" y2="1"><stop offset="0" stop-color="#f97316" stop-opacity=".12"/><stop offset="1" stop-color="#f97316" stop-opacity="0"/></linearGradient></defs><rect x=".5" y=".5" width="149" height="39" rx="12" fill="#120e1f" stroke="#8b5cf6" stroke-opacity=".6"/><rect x="64" y="0" width="22" height="2" rx="1" fill="#8b5cf6"/><g transform="translate(21 11) scale(0.75)" fill="none" stroke="#8b5cf6" stroke-width="1.6" stroke-linecap="round" stroke-linejoin="round"><rect x="2" y="7" width="20" height="14" rx="2"/><path d="M16 21V5a2 2 0 0 0-2-2h-4a2 2 0 0 0-2 2v16"/></g><text x="52" y="24.5" font-size="12.5" fill="#f1eefb">linkedin</text></svg>