<svg xmlns="http://www.w3.org/2000/svg" width="150" height="40" viewBox="0 0 150 40" font-family="ui-monospace,SFMono-Regular,Menlo,Consolas,'Liberation Mono',monospace"><defs><linearGradient id="g-pink" x1="0" y1="0" x2="0" y2="1"><stop offset="0" stop-color="#f9a8d4" stop-opacity=".18"/><stop offset="1" stop-color="#f9a8d4" stop-opacity="0"/></linearGradient><linearGradient id="g-lav" x1="0" y1="0" x2="0" y2="1"><stop offset="0" stop-color="#c4b5fd" stop-opacity=".18"/><stop offset="1" stop-color="#c4b5fd" stop-opacity="0"/></linearGradient><linearGradient id="g-mint" x1="0" y1="0" x2="0" y2="1"><stop offset="0" stop-color="#99f6e4" stop-opacity=".18"/><stop offset="1" stop-color="#99f6e4" stop-opacity="0"/></linearGradient><linearGradient id="g-peach" x1="0" y1="0" x2="0" y2="1"><stop offset="0" stop-color="#fdba74" stop-opacity=".18"/><stop offset="1" stop-color="#fdba74" stop-opacity="0"/></linearGradient></defs><rect x=".5" y=".5" width="149" height="39" rx="12" fill="#171025" stroke="#f9a8d4" stroke-opacity=".6"/><rect x="64" y="0" width="22" height="2" rx="1" fill="#f9a8d4"/><g transform="translate(21 11) scale(0.75)" fill="none" stroke="#f9a8d4" stroke-width="1.6" stroke-linecap="round" stroke-linejoin="round"><circle cx="12" cy="12" r="10"/><line x1="2" y1="12" x2="22" y2="12"/><path d="M12 2a15.3 15.3 0 0 1 4 10 15.3 15.3 0 0 1-4 10 15.3 15.3 0 0 1-4-10 15.3 15.3 0 0 1 4-10z"/></g><text x="52" y="24.5" font-size="12.5" fill="#ece6fa">portfolio</text></svg>